<svg width="27" height="18" viewBox="0 0 27 18" fill="none" xmlns="http://www.w3.org/2000/svg">
<path d="M14.2789 2.40108L14.2742 3.30454C14.2742 3.31775 14.2768 3.33083 14.2819 3.34303C14.287 3.35524 14.2945 3.36633 14.3039 3.37567C14.3133 3.38501 14.3245 3.39242 14.3368 3.39747C14.3492 3.40253 14.3624 3.40513 14.3757 3.40513C15.7965 3.40513 17.2277 3.40513 18.6692 3.40513C19.3355 3.40513 20.0124 3.54709 20.6999 3.83101C22.6221 4.6251 23.8509 6.02933 24.3861 8.0437C24.3896 8.05656 24.3971 8.06801 24.4076 8.07643C24.418 8.08486 24.4309 8.08985 24.4444 8.0907C25.0737 8.13332 25.5255 8.37995 25.8001 8.83058C26.0564 9.25175 26.1119 9.70646 25.9665 10.1947C25.8035 10.7431 25.3999 11.096 24.7556 11.2533C24.7437 11.2558 24.6656 11.2586 24.5215 11.2617C24.4244 11.2636 24.3657 11.3163 24.3457 11.4197C24.3325 11.4867 24.326 11.5212 24.326 11.5231C24.0539 12.5246 23.5726 13.3852 22.8819 14.1047C21.9017 15.1275 20.7127 15.7345 19.3151 15.9257C19.0801 15.9583 18.7115 15.9749 18.2095 15.9755C17.8554 15.9768 17.5016 15.9833 17.1481 15.9953C17.1336 15.9958 17.1193 15.9923 17.107 15.9851C17.0946 15.9779 17.0847 15.9674 17.0785 15.9548L16.3011 14.303C16.299 14.2989 16.2981 14.2943 16.2983 14.2897C16.2986 14.2851 16.3001 14.2806 16.3026 14.2766C16.3051 14.2727 16.3087 14.2694 16.3128 14.2671C16.317 14.2649 16.3217 14.2636 16.3264 14.2635C16.8253 14.2635 17.3252 14.2635 17.8259 14.2635C18.5304 14.2635 19.0284 14.2363 19.3198 14.1818C20.2956 13.9994 21.1148 13.5271 21.7773 12.765C22.3464 12.1113 22.6873 11.3241 22.8001 10.4034C22.8321 10.1408 22.834 9.70395 22.8058 9.09287C22.7726 8.37462 22.5237 7.68206 22.0593 7.0152C21.4238 6.10266 20.5949 5.51602 19.5727 5.25529C19.2198 5.16567 18.6758 5.12086 17.9406 5.12086C14.6502 5.12086 11.3598 5.12086 8.06935 5.12086C7.75409 5.12086 7.40374 5.18478 7.01829 5.31264C6.68361 5.42358 6.36522 5.57494 6.06313 5.76672C4.6542 6.66422 3.96164 8.00797 3.98546 9.79797C4.00802 11.462 4.68961 12.7293 6.03022 13.5998C6.76038 14.0736 7.59678 14.2949 8.53941 14.2635C9.22946 14.2404 11.4015 14.246 15.0554 14.2805C15.0698 14.2808 15.0837 14.2849 15.0957 14.2924C15.1076 14.2998 15.1171 14.3104 15.1231 14.3228L16.5596 17.3876C16.5627 17.3945 16.5639 17.402 16.5632 17.4096C16.5624 17.4171 16.5596 17.4244 16.5551 17.4307C16.5507 17.4371 16.5446 17.4423 16.5375 17.446C16.5304 17.4496 16.5225 17.4515 16.5145 17.4515H15.2904C15.276 17.4515 15.262 17.4477 15.2501 17.4405C15.2381 17.4334 15.2286 17.4232 15.2227 17.4111L14.5468 16.0272C14.5409 16.0146 14.5314 16.004 14.5194 15.9966C14.5074 15.9893 14.4934 15.9855 14.4791 15.9859C12.1764 16.0191 10.079 16.0169 8.18686 15.9793C6.98789 15.9555 5.89077 15.5948 4.89549 14.8972C3.63636 14.0154 2.82472 12.8368 2.46058 11.3614C2.45563 11.3414 2.44466 11.3234 2.42916 11.3099C2.41367 11.2964 2.39443 11.2882 2.37409 11.2862C1.87958 11.2417 1.49068 11.0709 1.20739 10.7738C0.932877 10.4868 0.788099 10.1323 0.773057 9.71054C0.757388 9.27683 0.911568 8.89263 1.2356 8.55794C1.52954 8.25397 1.91374 8.0976 2.38819 8.08882C2.40138 8.08857 2.41413 8.08392 2.42449 8.0756C2.43486 8.06728 2.44225 8.05574 2.44554 8.04276C2.91184 6.25026 3.95004 4.92562 5.56016 4.06886C6.08036 3.79246 6.63566 3.60162 7.22606 3.49632C7.56889 3.43553 8.14863 3.40513 8.96529 3.40513C10.1229 3.40513 11.293 3.40513 12.4757 3.40513C12.4866 3.40513 12.4975 3.40301 12.5076 3.39888C12.5177 3.39476 12.5268 3.38872 12.5345 3.38111C12.5422 3.37351 12.5483 3.36448 12.5524 3.35457C12.5565 3.34465 12.5586 3.33404 12.5584 3.32334L12.5547 2.48663C12.5545 2.46782 12.5503 2.44926 12.5422 2.43224C12.5341 2.41521 12.5224 2.40011 12.5079 2.38797C12.4933 2.37583 12.4763 2.36694 12.4579 2.3619C12.4395 2.35686 12.4203 2.3558 12.4014 2.35878C12.1363 2.40014 11.9376 2.35627 11.8054 2.22716C11.7108 2.1344 11.6575 1.9658 11.6456 1.72137C11.6337 1.47318 11.6402 1.25883 11.6653 1.07833C11.6967 0.852699 11.807 0.716695 11.9962 0.670315C12.0382 0.660287 12.1943 0.655273 12.4644 0.655273C13.2009 0.6559 13.9373 0.658721 14.6737 0.663735C14.9677 0.666242 15.1247 0.812901 15.1447 1.10371C15.1598 1.32997 15.1701 1.55654 15.1757 1.78342C15.187 2.20209 14.9805 2.39795 14.5562 2.371C14.4804 2.36661 14.4042 2.36191 14.3277 2.3569C14.3215 2.35637 14.3152 2.35713 14.3093 2.35912C14.3034 2.3611 14.2979 2.36427 14.2933 2.36843C14.2888 2.37259 14.2851 2.37764 14.2826 2.38326C14.2801 2.38888 14.2788 2.39495 14.2789 2.40108Z" fill="white"/>
</svg>
