<?xml version="1.0" encoding="utf-8"?>
<!-- Generator: Adobe Illustrator 26.3.1, SVG Export Plug-In . SVG Version: 6.00 Build 0)  -->
<svg version="1.1" id="Layer_1" xmlns="http://www.w3.org/2000/svg" xmlns:xlink="http://www.w3.org/1999/xlink" x="0px" y="0px"
	 viewBox="0 0 117.4 39.9" style="enable-background:new 0 0 117.4 39.9;" xml:space="preserve">
<style type="text/css">
	.st0{fill:#292930;}
	.st1{fill:#5956E9;}
	.st2{fill:#FFFFFF;}
	.st3{fill:#FAB8C4;}
</style>
<path class="st0" d="M74.5,29v-8.6c0-2.5-1.4-3.7-3.4-3.7c-2.1,0-3.5,1.3-3.5,3.7V29h-3.9v-8.6c0-2.5-1.4-3.7-3.4-3.7
	c-2.1,0-3.5,1.3-3.5,3.7V29h-3.9V13.5h3.9v1.9c1-1.3,2.6-2.1,4.6-2.1c2.4,0,4.4,1,5.5,3c1-1.8,3-3,5.3-3c3.7,0,6.3,2.3,6.3,6.6V29
	H74.5z M81.3,29V13.5h3.9V29H81.3z M83.3,11.7c-1.4,0-2.4-1-2.4-2.3c0-1.3,1-2.3,2.4-2.3c1.4,0,2.4,1,2.4,2.3
	C85.7,10.7,84.6,11.7,83.3,11.7z M88.2,29V8.3h3.9V29H88.2z M94.2,21.2c0-4.8,3.1-7.9,7.1-7.9c2.5,0,4.2,1.2,5.1,2.5v-2.2h3.9V29
	h-3.9v-2.3c-0.9,1.3-2.7,2.5-5.1,2.5C97.3,29.2,94.2,26,94.2,21.2z M106.4,21.2c0-2.9-2-4.6-4.1-4.6c-2.1,0-4.1,1.6-4.1,4.5
	s2,4.6,4.1,4.6C104.4,25.8,106.4,24.2,106.4,21.2z"/>
<path class="st1" d="M117.4,26.9c0,1.3-1,2.3-2.4,2.3c-1.4,0-2.4-1-2.4-2.3c0-1.3,1-2.3,2.4-2.3C116.4,24.6,117.4,25.6,117.4,26.9z"
	/>
<g>
	<path class="st2" d="M11.4,0h17.1c6.3,0,11.4,5.1,11.4,11.4v17.1c0,6.3-5.1,11.4-11.4,11.4H11.4C5.1,39.9,0,34.8,0,28.5V11.4
		C0,5.1,5.1,0,11.4,0z"/>
</g>
<path class="st1" d="M21.2,11.4l0,1.2c0,0,0,0,0,0c0,0,0,0,0,0c0,0,0,0,0,0c0,0,0,0,0,0c1.8,0,3.7,0,5.5,0c0.9,0,1.7,0.2,2.6,0.5
	c2.5,1,4,2.8,4.7,5.4c0,0,0,0,0,0c0,0,0,0,0,0c0.8,0.1,1.4,0.4,1.7,0.9c0.3,0.5,0.4,1.1,0.2,1.7c-0.2,0.7-0.7,1.2-1.5,1.4
	c0,0-0.1,0-0.3,0c-0.1,0-0.2,0.1-0.2,0.2c0,0.1,0,0.1,0,0.1c-0.3,1.3-1,2.4-1.8,3.3c-1.3,1.3-2.8,2.1-4.6,2.3
	c-0.3,0-0.8,0.1-1.4,0.1c-0.5,0-0.9,0-1.4,0c0,0,0,0-0.1,0c0,0,0,0,0,0l-1-2.1c0,0,0,0,0,0c0,0,0,0,0,0c0,0,0,0,0,0c0,0,0,0,0,0
	c0.6,0,1.3,0,1.9,0c0.9,0,1.5,0,1.9-0.1c1.2-0.2,2.3-0.8,3.1-1.8c0.7-0.8,1.2-1.8,1.3-3c0-0.3,0-0.9,0-1.7c0-0.9-0.4-1.8-1-2.7
	c-0.8-1.2-1.9-1.9-3.2-2.3c-0.5-0.1-1.1-0.2-2.1-0.2c-4.2,0-8.4,0-12.6,0c-0.4,0-0.9,0.1-1.3,0.2c-0.4,0.1-0.8,0.3-1.2,0.6
	c-1.8,1.1-2.7,2.9-2.7,5.2c0,2.1,0.9,3.8,2.6,4.9c0.9,0.6,2,0.9,3.2,0.8c0.9,0,3.7,0,8.3,0c0,0,0,0,0.1,0c0,0,0,0,0,0l1.8,3.9
	c0,0,0,0,0,0c0,0,0,0,0,0c0,0,0,0,0,0c0,0,0,0,0,0h-1.6c0,0,0,0-0.1,0c0,0,0,0,0,0l-0.9-1.8c0,0,0,0,0,0c0,0,0,0-0.1,0
	c-2.9,0-5.6,0-8.1,0c-1.5,0-2.9-0.5-4.2-1.4c-1.6-1.1-2.7-2.6-3.1-4.5c0,0,0,0,0-0.1c0,0,0,0-0.1,0c-0.6-0.1-1.1-0.3-1.5-0.7
	c-0.4-0.4-0.5-0.8-0.6-1.4c0-0.6,0.2-1,0.6-1.5c0.4-0.4,0.9-0.6,1.5-0.6c0,0,0,0,0,0c0,0,0,0,0,0c0.6-2.3,1.9-4,4-5.1
	c0.7-0.4,1.4-0.6,2.1-0.7c0.4-0.1,1.2-0.1,2.2-0.1c1.5,0,3,0,4.5,0c0,0,0,0,0,0c0,0,0,0,0,0c0,0,0,0,0,0c0,0,0,0,0,0l0-1.1
	c0,0,0,0,0-0.1c0,0,0,0,0-0.1c0,0,0,0-0.1,0c0,0,0,0-0.1,0c-0.3,0.1-0.6,0-0.8-0.2c-0.1-0.1-0.2-0.3-0.2-0.6c0-0.3,0-0.6,0-0.8
	c0-0.3,0.2-0.5,0.4-0.5c0.1,0,0.3,0,0.6,0c0.9,0,1.9,0,2.8,0c0.4,0,0.6,0.2,0.6,0.6c0,0.3,0,0.6,0,0.9c0,0.5-0.2,0.8-0.8,0.8
	C21.4,11.4,21.3,11.4,21.2,11.4C21.2,11.4,21.2,11.4,21.2,11.4C21.2,11.4,21.2,11.4,21.2,11.4C21.2,11.4,21.2,11.4,21.2,11.4
	C21.2,11.4,21.2,11.4,21.2,11.4z"/>
<path class="st3" d="M24.1,22.4c0.5,0,0.9-0.2,1.2-0.6c0.2-0.3,0.4-0.6,0.4-1c0-0.4,0-0.7-0.3-1.1c-0.2-0.3-0.4-0.5-0.7-0.6
	c-0.3-0.1-0.6-0.2-0.9-0.1c-0.7,0.1-1.2,0.6-1.5,1.4c0,0,0,0,0,0c0,0,0,0,0,0c0,0,0,0,0,0c0,0,0,0,0,0L20.7,19c0,0,0,0,0-0.1
	c0,0,0,0,0-0.1c0.6-1,1.3-1.6,2.3-1.9c0.7-0.2,1.4-0.2,2.1,0c0.7,0.2,1.3,0.6,1.9,1.1c0.7,0.8,1.1,1.7,1,2.8c0,1-0.5,1.9-1.3,2.7
	c-0.9,0.8-1.9,1.1-3,1c-0.9-0.1-1.6-0.4-2.3-1c-2-1.8-3.3-3.1-4-3.8c-0.3-0.3-0.7-0.5-1.1-0.6c-0.4-0.1-0.8,0-1.1,0.2
	c-0.4,0.2-0.7,0.6-0.8,1.1c-0.1,0.4,0,0.8,0.2,1.2c0.2,0.3,0.4,0.5,0.7,0.6c0.3,0.1,0.5,0.2,0.9,0.2c0.7-0.1,1.3-0.5,1.5-1.3
	c0,0,0,0,0,0c0,0,0,0,0,0c0,0,0,0,0,0c0,0,0,0,0,0l1.5,1.4c0,0,0,0,0,0c0,0,0,0,0,0.1c-0.4,0.7-0.9,1.2-1.6,1.5
	c-0.7,0.3-1.4,0.5-2.2,0.4c-0.7-0.1-1.4-0.4-1.9-0.8c-0.5-0.4-0.8-0.9-1.1-1.5c-0.2-0.6-0.3-1.1-0.3-1.8c0.1-0.9,0.4-1.7,1-2.3
	c0.6-0.6,1.3-0.9,2.1-1.1c1.2-0.2,2.4,0.1,3.4,1.1c0.5,0.4,1.9,1.8,4.3,4c0.1,0.1,0.3,0.2,0.5,0.3C23.7,22.4,23.9,22.4,24.1,22.4z"
	/>
</svg>
