<?xml version="1.0" encoding="utf-8"?>
<!-- Generator: Adobe Illustrator 26.3.1, SVG Export Plug-In . SVG Version: 6.00 Build 0)  -->
<svg version="1.1" id="Layer_1" xmlns="http://www.w3.org/2000/svg" xmlns:xlink="http://www.w3.org/1999/xlink" x="0px" y="0px"
	 viewBox="0 0 39.9 39.9" style="enable-background:new 0 0 39.9 39.9;" xml:space="preserve">
<style type="text/css">
	.st0{fill:#FFFFFF;}
	.st1{fill:#5956E9;}
	.st2{fill:#FAB8C4;}
</style>
<g>
	<path class="st0" d="M11.4,0h17.1c6.3,0,11.4,5.1,11.4,11.4v17.1c0,6.3-5.1,11.4-11.4,11.4H11.4C5.1,39.9,0,34.8,0,28.5V11.4
		C0,5.1,5.1,0,11.4,0z"/>
</g>
<path class="st1" d="M21.2,11.4v1.2l0,0l0,0l0,0l0,0c1.8,0,3.7,0,5.5,0c0.9,0,1.7,0.2,2.6,0.5c2.5,1,4,2.8,4.7,5.4l0,0l0,0
	c0.8,0.1,1.4,0.4,1.7,0.9s0.4,1.1,0.2,1.7c-0.2,0.7-0.7,1.2-1.5,1.4c0,0-0.1,0-0.3,0c-0.1,0-0.2,0.1-0.2,0.2s0,0.1,0,0.1
	c-0.3,1.3-1,2.4-1.8,3.3c-1.3,1.3-2.8,2.1-4.6,2.3c-0.3,0-0.8,0.1-1.4,0.1c-0.5,0-0.9,0-1.4,0c0,0,0,0-0.1,0l0,0l-1-2.1l0,0l0,0l0,0
	l0,0c0.6,0,1.3,0,1.9,0c0.9,0,1.5,0,1.9-0.1c1.2-0.2,2.3-0.8,3.1-1.8c0.7-0.8,1.2-1.8,1.3-3c0-0.3,0-0.9,0-1.7c0-0.9-0.4-1.8-1-2.7
	c-0.8-1.2-1.9-1.9-3.2-2.3c-0.5-0.1-1.1-0.2-2.1-0.2c-4.2,0-8.4,0-12.6,0c-0.4,0-0.9,0.1-1.3,0.2c-0.4,0.1-0.8,0.3-1.2,0.6
	c-1.8,1.1-2.7,2.9-2.7,5.2c0,2.1,0.9,3.8,2.6,4.9c0.9,0.6,2,0.9,3.2,0.8c0.9,0,3.7,0,8.3,0c0,0,0,0,0.1,0l0,0l1.8,3.9l0,0l0,0l0,0
	l0,0h-1.6c0,0,0,0-0.1,0l0,0l-0.9-1.8l0,0c0,0,0,0-0.1,0c-2.9,0-5.6,0-8.1,0c-1.5,0-2.9-0.5-4.2-1.4c-1.6-1.1-2.7-2.6-3.1-4.5
	c0,0,0,0,0-0.1c0,0,0,0-0.1,0c-0.6-0.1-1.1-0.3-1.5-0.7c-0.4-0.4-0.5-0.8-0.6-1.4c0-0.6,0.2-1,0.6-1.5c0.4-0.4,0.9-0.6,1.5-0.6l0,0
	l0,0c0.6-2.3,1.9-4,4-5.1c0.7-0.4,1.4-0.6,2.1-0.7c0.4-0.1,1.2-0.1,2.2-0.1c1.5,0,3,0,4.5,0l0,0l0,0l0,0l0,0v-1.1c0,0,0,0,0-0.1
	c0,0,0,0,0-0.1c0,0,0,0-0.1,0c0,0,0,0-0.1,0c-0.3,0.1-0.6,0-0.8-0.2c-0.1-0.1-0.2-0.3-0.2-0.6s0-0.6,0-0.8c0-0.3,0.2-0.5,0.4-0.5
	c0.1,0,0.3,0,0.6,0c0.9,0,1.9,0,2.8,0c0.4,0,0.6,0.2,0.6,0.6c0,0.3,0,0.6,0,0.9c0,0.5-0.2,0.8-0.8,0.8
	C21.4,11.4,21.3,11.4,21.2,11.4L21.2,11.4L21.2,11.4L21.2,11.4L21.2,11.4z"/>
<path class="st2" d="M24.1,22.4c0.5,0,0.9-0.2,1.2-0.6c0.2-0.3,0.4-0.6,0.4-1s0-0.7-0.3-1.1c-0.2-0.3-0.4-0.5-0.7-0.6
	c-0.3-0.1-0.6-0.2-0.9-0.1c-0.7,0.1-1.2,0.6-1.5,1.4l0,0l0,0l0,0l0,0L20.7,19c0,0,0,0,0-0.1c0,0,0,0,0-0.1c0.6-1,1.3-1.6,2.3-1.9
	c0.7-0.2,1.4-0.2,2.1,0s1.3,0.6,1.9,1.1c0.7,0.8,1.1,1.7,1,2.8c0,1-0.5,1.9-1.3,2.7c-0.9,0.8-1.9,1.1-3,1c-0.9-0.1-1.6-0.4-2.3-1
	c-2-1.8-3.3-3.1-4-3.8c-0.3-0.3-0.7-0.5-1.1-0.6s-0.8,0-1.1,0.2c-0.4,0.2-0.7,0.6-0.8,1.1c-0.1,0.4,0,0.8,0.2,1.2
	c0.2,0.3,0.4,0.5,0.7,0.6s0.5,0.2,0.9,0.2c0.7-0.1,1.3-0.5,1.5-1.3l0,0l0,0l0,0l0,0l1.5,1.4l0,0c0,0,0,0,0,0.1
	c-0.4,0.7-0.9,1.2-1.6,1.5s-1.4,0.5-2.2,0.4c-0.7-0.1-1.4-0.4-1.9-0.8s-0.8-0.9-1.1-1.5c-0.2-0.6-0.3-1.1-0.3-1.8
	c0.1-0.9,0.4-1.7,1-2.3c0.6-0.6,1.3-0.9,2.1-1.1c1.2-0.2,2.4,0.1,3.4,1.1c0.5,0.4,1.9,1.8,4.3,4c0.1,0.1,0.3,0.2,0.5,0.3
	C23.7,22.4,23.9,22.4,24.1,22.4z"/>
</svg>
