<svg width="34" height="22" viewBox="0 0 34 22" fill="none" xmlns="http://www.w3.org/2000/svg">
    <path d="M18.1522 2.41115L18.1462 3.56746C18.1462 3.58436 18.1496 3.6011 18.1561 3.61672C18.1626 3.63235 18.1722 3.64654 18.1843 3.65849C18.1963 3.67045 18.2106 3.67993 18.2264 3.6864C18.2422 3.69287 18.2591 3.6962 18.2761 3.6962C20.0946 3.6962 21.9263 3.6962 23.7713 3.6962C24.624 3.6962 25.4903 3.87789 26.3703 4.24126C28.8305 5.25759 30.4031 7.05481 31.0881 9.63293C31.0926 9.64939 31.1022 9.66404 31.1156 9.67483C31.129 9.68562 31.1454 9.692 31.1627 9.69309C31.9681 9.74764 32.5464 10.0633 32.8978 10.64C33.2259 11.1791 33.2968 11.761 33.1107 12.3859C32.9022 13.0878 32.3856 13.5394 31.561 13.7408C31.5457 13.744 31.4459 13.7476 31.2614 13.7516C31.137 13.754 31.062 13.8214 31.0364 13.9537C31.0195 14.0396 31.0111 14.0837 31.0111 14.0861C30.663 15.3679 30.0469 16.4693 29.163 17.3901C27.9084 18.6993 26.3867 19.4761 24.5979 19.7208C24.2971 19.7625 23.8254 19.7838 23.1829 19.7846C22.7297 19.7862 22.2769 19.7946 21.8245 19.8098C21.8059 19.8106 21.7876 19.806 21.7718 19.7969C21.756 19.7877 21.7433 19.7742 21.7354 19.7581L20.7404 17.644C20.7377 17.6387 20.7365 17.6329 20.7369 17.627C20.7372 17.6211 20.7391 17.6153 20.7423 17.6103C20.7456 17.6052 20.7501 17.601 20.7554 17.5981C20.7607 17.5952 20.7667 17.5936 20.7728 17.5935C21.4114 17.5935 22.0511 17.5935 22.692 17.5935C23.5936 17.5935 24.2309 17.5586 24.6039 17.4888C25.8529 17.2554 26.9013 16.651 27.7492 15.6755C28.4775 14.8389 28.9139 13.8314 29.0583 12.653C29.0992 12.3169 29.1016 11.7578 29.0655 10.9757C29.023 10.0565 28.7045 9.17009 28.1101 8.3166C27.2967 7.14867 26.2359 6.39785 24.9276 6.06416C24.476 5.94945 23.7797 5.89209 22.8388 5.89209C18.6275 5.89209 14.4162 5.89209 10.2049 5.89209C9.8014 5.89209 9.35299 5.97391 8.85967 6.13755C8.43132 6.27953 8.02383 6.47325 7.63719 6.71871C5.83395 7.8674 4.94757 9.58721 4.97805 11.8782C5.00693 14.0079 5.87927 15.6298 7.59508 16.744C8.52958 17.3504 9.60006 17.6336 10.8065 17.5935C11.6897 17.5638 14.4695 17.571 19.1461 17.6152C19.1645 17.6155 19.1823 17.6208 19.1976 17.6304C19.2129 17.6399 19.2251 17.6534 19.2327 17.6693L21.0712 21.5918C21.0752 21.6006 21.0768 21.6103 21.0758 21.62C21.0748 21.6296 21.0713 21.6389 21.0655 21.6471C21.0598 21.6552 21.052 21.6619 21.0429 21.6665C21.0338 21.6712 21.0237 21.6736 21.0135 21.6736H19.4469C19.4284 21.6736 19.4105 21.6688 19.3952 21.6596C19.3799 21.6505 19.3678 21.6374 19.3602 21.6219L18.4951 19.8507C18.4876 19.8346 18.4754 19.821 18.46 19.8116C18.4446 19.8022 18.4267 19.7974 18.4085 19.7978C15.4614 19.8403 12.777 19.8375 10.3553 19.7894C8.82077 19.7589 7.4166 19.2973 6.14278 18.4045C4.53126 17.2758 3.49247 15.7674 3.02642 13.8791C3.02009 13.8535 3.00604 13.8305 2.98621 13.8132C2.96639 13.796 2.94176 13.7854 2.91572 13.7829C2.28282 13.7259 1.78509 13.5073 1.42251 13.1271C1.07117 12.7597 0.885874 12.3061 0.866622 11.7663C0.846568 11.2112 1.0439 10.7194 1.45861 10.2911C1.83482 9.90205 2.32654 9.70192 2.93377 9.69069C2.95065 9.69036 2.96697 9.68441 2.98024 9.67376C2.9935 9.66311 3.00296 9.64834 3.00717 9.63173C3.60397 7.33757 4.93273 5.64222 6.99346 4.54568C7.65925 4.19193 8.36996 3.94768 9.12558 3.81292C9.56436 3.73511 10.3064 3.6962 11.3516 3.6962C12.8331 3.6962 14.3307 3.6962 15.8444 3.6962C15.8584 3.6962 15.8723 3.69348 15.8852 3.6882C15.8981 3.68293 15.9099 3.6752 15.9197 3.66546C15.9296 3.65573 15.9373 3.64418 15.9426 3.63148C15.9478 3.61879 15.9505 3.60521 15.9503 3.59152L15.9455 2.52065C15.9453 2.49657 15.9399 2.47282 15.9295 2.45103C15.9192 2.42924 15.9042 2.40991 15.8856 2.39437C15.867 2.37884 15.8452 2.36746 15.8217 2.36101C15.7981 2.35456 15.7735 2.35319 15.7494 2.35701C15.41 2.40995 15.1558 2.3538 14.9865 2.18856C14.8654 2.06984 14.7972 1.85406 14.782 1.54122C14.7667 1.22357 14.7751 0.949231 14.8072 0.718211C14.8473 0.429436 14.9885 0.255369 15.2308 0.196009C15.2845 0.183175 15.4842 0.176758 15.83 0.176758C16.7725 0.17756 17.715 0.18117 18.6576 0.187587C19.0338 0.190795 19.2347 0.378499 19.2604 0.750698C19.2796 1.04028 19.2929 1.33025 19.3001 1.62063C19.3145 2.15647 19.0502 2.40714 18.5072 2.37265C18.4101 2.36704 18.3126 2.36102 18.2148 2.3546C18.2068 2.35393 18.1987 2.3549 18.1912 2.35744C18.1836 2.35999 18.1766 2.36405 18.1707 2.36937C18.1649 2.37468 18.1602 2.38115 18.157 2.38834C18.1538 2.39554 18.1522 2.4033 18.1522 2.41115Z"
          fill="white"/>
    <path d="M21.1361 13.4305C21.6181 13.3912 22.0072 13.1991 22.3032 12.8541C22.5406 12.5758 22.6802 12.2585 22.7219 11.9024C22.7652 11.5246 22.6814 11.168 22.4704 10.8327C22.2924 10.5511 22.0517 10.3386 21.7485 10.195C21.4677 10.0618 21.1637 10.0169 20.8364 10.0602C20.0937 10.1581 19.6023 10.6121 19.3625 11.4223C19.3592 11.4334 19.3532 11.4436 19.345 11.4519C19.3368 11.4601 19.3267 11.4661 19.3156 11.4694C19.3045 11.4726 19.2929 11.473 19.2817 11.4704C19.2705 11.4679 19.2602 11.4625 19.2518 11.4548L17.6563 10.0241C17.6403 10.0094 17.6299 9.98949 17.6269 9.96782C17.6238 9.94614 17.6282 9.92397 17.6395 9.90501C18.2074 8.95366 18.9735 8.3356 19.9376 8.05084C20.6291 7.84709 21.3209 7.83305 22.0132 8.00872C22.7367 8.19242 23.3552 8.56742 23.8686 9.13374C24.5921 9.93108 24.9306 10.856 24.8841 11.9084C24.8376 12.9528 24.4185 13.8368 23.6267 14.5603C22.7684 15.3448 21.7738 15.6841 20.6427 15.5782C19.7876 15.4988 19.024 15.1499 18.3518 14.5314C16.3496 12.6921 15.02 11.4243 14.3631 10.728C14.0454 10.3911 13.6889 10.1822 13.2934 10.1011C12.8996 10.0209 12.5193 10.0883 12.1527 10.3033C11.73 10.5511 11.4725 10.9169 11.3803 11.4006C11.2952 11.8466 11.3634 12.2497 11.5848 12.6099C11.7477 12.8746 11.9719 13.0795 12.2574 13.2247C12.5205 13.3587 12.8061 13.4132 13.1141 13.3884C13.8617 13.3282 14.3719 12.8874 14.6446 12.066C14.6478 12.0565 14.6533 12.048 14.6607 12.0412C14.668 12.0344 14.6769 12.0295 14.6865 12.027C14.6962 12.0245 14.7063 12.0245 14.7161 12.0269C14.7258 12.0292 14.7347 12.034 14.7421 12.0407L16.2834 13.4882C16.2962 13.5004 16.3045 13.5165 16.3071 13.5339C16.3097 13.5513 16.3065 13.5691 16.2979 13.5845C15.9072 14.2719 15.3606 14.7845 14.6579 15.1222C13.9448 15.4655 13.224 15.5879 12.4957 15.4892C11.785 15.3937 11.1456 15.1134 10.5777 14.6481C10.0916 14.2495 9.72945 13.7541 9.49121 13.1622C9.26741 12.6095 9.18198 12.0223 9.23492 11.4006C9.31032 10.5006 9.65124 9.74217 10.2577 9.12532C10.8232 8.54937 11.5162 8.18038 12.3368 8.01835C13.5665 7.77449 14.6932 8.12624 15.7167 9.07358C16.1956 9.51637 17.6194 10.8499 19.9882 13.0743C20.1221 13.1995 20.3038 13.2965 20.5332 13.3655C20.7306 13.4249 20.9315 13.4465 21.1361 13.4305Z"
          fill="white"/>
</svg>
